<svg width="138" height="119" viewBox="0 0 138 119" fill="none" xmlns="http://www.w3.org/2000/svg">
<rect width="137.2" height="119" rx="15" fill="#FF6900"/>
<path d="M64.6775 29.9943L52.7115 44.2871C52.3791 44.9519 52.0467 45.949 51.7143 46.6138L46.0637 75.1994C45.7313 77.1937 46.7285 79.5204 48.3904 80.5176L66.0071 90.4893C67.3366 91.1541 69.6634 91.1541 70.9929 90.4893L88.6096 80.5176C90.2715 79.5204 91.2687 77.1937 90.9363 75.1994L85.2857 46.6138C85.2857 45.949 84.6209 44.9519 84.2885 44.2871L72.3225 29.9943C70.3281 27.3352 67.0042 27.3352 64.6775 29.9943Z" stroke="white" stroke-width="4.98585" stroke-miterlimit="10" stroke-linecap="round" stroke-linejoin="round"/>
<path d="M84.6209 46.9462L70.3281 87.4977C69.6633 88.8273 67.669 88.8273 67.3366 87.4977L52.7115 46.9462" stroke="white" stroke-width="4.98585" stroke-miterlimit="10" stroke-linecap="round" stroke-linejoin="round"/>
</svg>
